<!DOCTYPE svg PUBLIC "-//W3C//DTD SVG 20010904//EN" "http://www.w3.org/TR/2001/REC-SVG-20010904/DTD/svg10.dtd">
<svg version="1.0" xmlns="http://www.w3.org/2000/svg" width="962px" height="443px" viewBox="0 0 9620 4430" preserveAspectRatio="xMidYMid meet">
<g id="layer101" fill="#02a2d5" stroke="none">
 <path d="M617 4346 c-4 -10 -14 -110 -22 -224 -45 -596 -184 -1837 -280 -2508 -43 -299 -153 -948 -194 -1143 -10 -52 -17 -99 -15 -105 6 -15 660 -287 704 -293 l35 -5 0 619 c0 718 16 1035 91 1798 13 138 24 257 24 265 0 13 37 15 272 15 299 1 395 12 656 76 422 103 786 288 878 445 78 134 12 338 -163 505 -240 226 -627 401 -1093 493 -262 52 -401 67 -656 73 -211 5 -231 4 -237 -11z m888 -474 c141 -98 495 -382 495 -398 0 -13 -332 -147 -552 -223 -96 -32 -148 -46 -148 -38 0 19 91 700 96 715 5 16 5 15 109 -56z"/>
 <path d="M5386 4338 c-3 -13 -10 -86 -16 -163 -95 -1187 -293 -2743 -456 -3579 -24 -126 -42 -231 -40 -234 8 -8 407 -178 557 -238 76 -30 148 -54 160 -54 l24 0 0 592 c0 579 6 775 41 1248 16 230 61 729 72 805 l7 49 255 1 c260 1 315 6 540 50 471 92 902 293 1006 470 51 88 41 205 -29 340 -38 71 -181 220 -277 287 -137 96 -381 216 -565 277 -305 102 -744 171 -1082 171 -192 0 -193 0 -197 -22z m927 -495 c194 -142 377 -285 421 -331 l38 -40 -29 -16 c-91 -47 -621 -246 -655 -246 -10 0 -18 6 -18 13 0 17 89 667 95 695 3 12 8 22 11 22 2 0 64 -43 137 -97z"/>
 <path d="M4346 4073 c-3 -27 -37 -406 -76 -843 -38 -437 -72 -813 -74 -835 -3 -22 -1 -47 4 -54 23 -38 466 -39 504 -1 17 17 25 259 32 1011 l7 756 -123 6 c-68 4 -156 7 -196 7 l-72 0 -6 -47z"/>
 <path d="M9116 4099 c-3 -13 -28 -276 -56 -584 -28 -308 -59 -652 -69 -765 -11 -113 -21 -252 -23 -309 l-3 -105 35 -8 c19 -5 121 -10 225 -10 233 -2 247 2 256 77 11 86 33 1696 23 1705 -5 4 -93 11 -196 15 l-187 7 -5 -23z"/>
 <path d="M3081 4061 c-13 -8 -341 -1682 -341 -1739 0 -14 50 -28 190 -53 151 -26 293 -30 315 -8 22 22 55 238 104 684 79 708 113 1067 103 1077 -9 9 -61 16 -319 41 -22 2 -46 1 -52 -2z"/>
 <path d="M7852 4061 c-13 -8 -147 -680 -272 -1361 -56 -301 -67 -377 -57 -388 31 -30 390 -80 456 -62 49 13 56 28 80 200 49 338 176 1559 164 1570 -4 4 -78 15 -163 24 -85 9 -164 19 -175 21 -11 2 -26 1 -33 -4z"/>
 <path d="M3755 3893 c-27 -2 -53 -7 -57 -11 -4 -4 -16 -115 -28 -247 -84 -968 -236 -2228 -340 -2820 -42 -240 -47 -219 58 -240 48 -9 157 -19 243 -22 146 -5 158 -4 167 13 5 11 12 71 16 134 34 575 147 2038 211 2743 19 207 35 395 35 417 l0 40 -127 -2 c-71 -1 -150 -3 -178 -5z"/>
 <path d="M8550 3893 c-41 -2 -79 -8 -83 -12 -4 -4 -23 -185 -43 -402 -84 -961 -227 -2123 -332 -2711 -16 -87 -26 -162 -23 -167 9 -14 197 -40 343 -47 114 -6 136 -5 149 9 12 11 18 47 23 139 18 325 153 2077 206 2673 16 182 32 374 36 428 l7 97 -104 -2 c-57 -1 -138 -4 -179 -5z"/>
 <path d="M4196 2102 c-4 -6 -13 -105 -21 -219 -9 -115 -19 -257 -24 -318 -5 -60 -6 -113 -2 -117 4 -4 54 -9 111 -10 l104 -3 8 40 c4 22 8 165 9 318 3 234 1 280 -12 292 -19 19 -163 33 -173 17z"/>
 <path d="M8960 2109 c0 -2 -7 -96 -14 -209 -29 -412 -30 -449 -14 -455 8 -3 57 -7 109 -8 l94 -2 6 70 c10 104 10 583 1 589 -10 6 -182 20 -182 15z"/>
 <path d="M4498 2093 c-10 -2 -18 -8 -19 -11 -4 -34 -7 -119 -14 -371 l-8 -294 114 7 c90 5 117 10 127 23 9 13 12 91 10 333 l-3 315 -95 2 c-52 0 -103 -1 -112 -4z"/>
 <path d="M9264 2090 c-20 -8 -21 -16 -28 -329 -4 -177 -4 -326 0 -333 5 -7 39 -9 113 -4 83 5 109 10 119 23 9 13 12 93 12 319 0 166 -3 309 -6 318 -5 13 -23 16 -98 15 -50 0 -100 -4 -112 -9z"/>
 <path d="M2715 2081 c-10 -17 -118 -642 -111 -648 13 -13 200 -43 209 -34 5 5 13 31 18 58 16 85 69 506 69 550 0 41 -1 42 -42 53 -24 6 -59 15 -78 21 -44 11 -57 11 -65 0z"/>
 <path d="M7485 2080 c-5 -9 -115 -623 -115 -646 0 -12 160 -38 200 -33 23 4 26 11 37 76 23 139 52 399 55 488 l3 90 -65 17 c-76 19 -107 22 -115 8z"/>
 <path d="M2987 2024 c-4 -10 -18 -120 -32 -244 -14 -124 -30 -267 -36 -318 -6 -51 -8 -96 -4 -100 4 -4 54 -7 112 -7 89 0 107 3 118 18 7 10 18 68 24 130 30 283 48 513 42 519 -4 5 -55 11 -113 14 -98 6 -106 6 -111 -12z"/>
 <path d="M7757 2009 c-3 -19 -23 -171 -43 -338 -31 -256 -35 -304 -23 -312 18 -13 215 -7 228 6 13 13 73 647 63 657 -4 4 -55 10 -113 14 l-106 7 -6 -34z"/>
 </g>

</svg>