<svg t="1595345902687" class="icon" viewBox="0 0 1024 1024" version="1.1" xmlns="http://www.w3.org/2000/svg" p-id="1160"
     width="200" height="200">
    <path d="M511.823 67c-208.215-0.153-388.629 144.437-434.067 347.878-45.438 203.44 56.28 411.195 244.73 499.847 188.45 88.653 413.113 34.439 540.528-130.437 8.397-14.92 4.693-33.74-8.73-44.355-13.423-10.615-32.567-9.863-45.119 1.77-116.842 150.752-328.252 189.361-490.73 89.622-162.48-99.738-224-305.889-142.805-478.522 81.195-172.632 279.108-256.47 459.4-194.604 180.293 61.865 285.234 249.623 243.593 435.828a34.8 34.8 0 0 0 8.073 35.292 34.7 34.7 0 0 0 35.034 8.973 34.756 34.756 0 0 0 24.01-27.075c26.5-115.522 5.789-236.857-57.529-337.01C824.893 174.054 724.222 103.391 608.596 77.94A428.763 428.763 0 0 0 511.823 67z"
          fill="#e6e6e6" p-id="1161"/>
    <path d="M388.923 332.562l125.04 129.283 129.113-124.25c14.13-13.597 36.595-13.205 50.24 0.877 13.586 14.02 13.234 36.397-0.785 49.982l-0.088 0.085L563.28 512.836l124.996 129.236c13.633 14.095 13.258 36.573-0.837 50.206l-0.04 0.039c-14.145 13.638-36.663 13.245-50.323-0.879L512.034 562.154l-129.11 124.25c-14.13 13.598-36.595 13.206-50.24-0.876-13.586-14.02-13.234-36.397 0.785-49.982l0.088-0.085 129.16-124.298-124.994-129.235c-13.633-14.095-13.258-36.573 0.837-50.206l0.04-0.039c14.145-13.638 36.663-13.245 50.323 0.879z"
          fill="#e6e6e6" p-id="1162"/>
</svg>
