<svg t="1594812601842" class="icon" viewBox="0 0 1024 1024" version="1.1" xmlns="http://www.w3.org/2000/svg" p-id="1124"
     width="200" height="200">
    <path d="M445.575 847.483H264.516c-58.668-0.213-106.236-47.527-106.667-106.096V381.839a66.365 66.365 0 0 1 24.01-50.69l31.882-23.578c11.64-12.38 12.823-31.272 2.82-45.003-10.004-13.732-28.37-18.429-43.755-11.189l-32.67 24.363C107.183 301.198 87.627 340.245 87 381.84v359.94c0.216 97.787 79.567 177.005 177.516 177.221h181.06C465.14 919 481 903.166 481 883.635c0-19.532-15.86-35.366-35.425-35.366v-0.786z"
          fill="#e6e6e6" p-id="1125"/>
    <path d="M937 380.528c-0.413-41.282-19.32-80.207-51.524-106.08L613.695 57.966c-59.723-47.955-144.8-47.955-204.524 0l-86.136 62.47c-16.183 11.608-19.88 34.124-8.26 50.289 11.622 16.166 34.162 19.86 50.345 8.25l87.316-65.219c34.271-28.184 83.723-28.184 117.994 0l271.781 216.482a66.373 66.373 0 0 1 25.172 51.076V741.2c0 58.586-47.545 106.08-106.195 106.08h-80.63c-8.254 0-14.945-6.684-14.945-14.93V670.087c0-51.707-41.847-93.684-93.61-93.9H454.01a94.054 94.054 0 0 0-66.47 27.502 93.849 93.849 0 0 0-27.532 66.398v62.076c0 19.53 15.848 35.36 35.398 35.36 19.55 0 35.398-15.83 35.398-35.36v-62.076a22.774 22.774 0 0 1 6.541-16.368 22.825 22.825 0 0 1 16.272-6.812H571.61c12.6 0 22.813 10.202 22.813 22.787V832.35c0.216 47.367 38.717 85.65 86.136 85.65h78.663c97.967 0 177.385-79.332 177.385-177.193l0.393-360.28z"
          fill="#e6e6e6" p-id="1126"/>
    <path d="M665.613 832.35V670.087c0-51.707-41.847-93.684-93.61-93.9H454.01a94.054 94.054 0 0 0-66.47 27.502 93.849 93.849 0 0 0-27.532 66.398v62.076c0 19.53 15.848 35.36 35.398 35.36 19.55 0 35.398-15.83 35.398-35.36v-62.076a22.774 22.774 0 0 1 6.541-16.368 22.825 22.825 0 0 1 16.272-6.812H571.61c12.6 0 22.813 10.202 22.813 22.787V832.35h71.19z"
          fill="#e6e6e6" p-id="1127"/>
</svg>
