<svg t="1594813258888" class="icon" viewBox="0 0 1024 1024" version="1.1" xmlns="http://www.w3.org/2000/svg" p-id="1630"
     width="200" height="200">
    <path d="M755.782 539.688c58.462 0.181 105.862 48.42 106.218 108.1v105.78c-0.355 59.735-47.703 108.07-106.218 108.432h-103.62c-58.461-0.364-105.716-48.751-105.893-108.432v-105.78c0-59.701 47.41-108.1 105.893-108.1z m-445.012 0c10.88-1.188 21.47 4.067 27.275 13.536 5.804 9.47 5.804 21.49 0 30.959-5.805 9.469-16.395 14.724-27.275 13.535h-42.552c-27.142 0-49.195 22.364-49.373 50.071v104.453c0.69 27.485 22.446 49.548 49.373 50.071H373.09c12.848-0.074 25.164-5.292 34.29-14.548 9.269-9.4 14.481-22.186 14.48-35.523V595.397l-0.074-0.434c-1.918-11.57 3.145-23.21 12.878-29.509 9.853-6.378 22.515-6.002 31.99 0.95 9.474 6.951 13.858 19.084 11.077 30.651v156.182c0 59.885-47.556 108.432-106.218 108.432H268.218C210.063 860.437 163.207 812.605 162 753.237V647.789c0-28.727 11.201-56.273 31.13-76.556 19.93-20.282 46.947-31.632 75.088-31.544z m445.012 58.03h-103.62c-27.088 0-49.05 22.417-49.05 50.07v106.403c0.076 13.083 5.198 25.618 14.271 34.88 9.218 9.41 21.744 14.657 34.78 14.57h104.22c12.819-0.075 25.102-5.304 34.178-14.57 9.217-9.409 14.357-22.196 14.27-35.503v-105.78c0-13.279-5.168-26.015-14.366-35.405-9.199-9.39-21.675-14.665-34.683-14.665zM371.838 162c58.588 0.182 106.04 48.622 106.218 108.432v105.78c0 28.727-11.201 56.273-31.13 76.555-19.93 20.283-46.948 31.633-75.088 31.545h-103.62c-58.462-0.181-105.862-48.42-106.218-108.1v-105.78c0.355-59.735 47.703-108.07 106.218-108.432z m-103.62 58.361c-13.176-0.267-25.904 4.89-35.314 14.309-9.41 9.42-14.712 22.308-14.71 35.762v105.78c-0.267 13.625 4.917 26.773 14.357 36.41 9.44 9.636 22.32 14.929 35.667 14.655h103.62c13.151-0.087 25.725-5.527 34.933-15.114 9.208-9.586 14.289-22.527 14.115-35.952V270.432c-0.177-27.578-22.033-49.89-49.048-50.071z"
          fill="#e6e6e6" p-id="1631"/>
    <path d="M861.675 375.88V270.432c-1.2-59.242-47.864-107.025-105.893-108.432h-103.62c-28.14 0-55.124 11.434-74.993 31.779-19.868 20.345-30.986 47.926-30.9 76.653v156.845c-0.262 7.708 2.51 15.203 7.698 20.81 5.187 5.608 12.359 8.861 19.912 9.034 15.72 0.19 28.706-12.479 29.235-28.517V270.432c0-27.653 21.96-50.071 49.048-50.071h103.62c26.942 0.357 48.699 22.567 49.049 50.071v105.78c0.173 13.424-4.908 26.365-14.116 35.951-9.207 9.587-21.781 15.027-34.933 15.114h-41.578c-14.526 1.588-25.542 14.101-25.542 29.015 0 14.913 11.016 27.427 25.542 29.014h42.877c28.086-0.35 54.884-12.075 74.5-32.597 19.615-20.522 30.44-48.159 30.094-76.83z"
          fill="#e6e6e6" p-id="1632"/>
</svg>
