<svg t="1594812932141" class="icon" viewBox="0 0 1024 1024" version="1.1" xmlns="http://www.w3.org/2000/svg" p-id="1443"
     width="200" height="200">
    <path d="M539.706 70h-54.537c-30.715 0-60.163 12.003-81.83 33.352-19.203 18.923-30.95 43.873-33.215 70.421l-0.376 8.575c-0.419 27.922-22.954 49.704-50.615 49.702-6.273-0.066-12.788-1.499-18.786-4.199l-5.883-3.075c-54.35-30.567-125.014-11.844-156.9 42.43l-28.672 46.201c-30.487 51.87-15.45 117.033 33.763 150.595l6.844 4.307c16.869 9.585 26.512 25.965 26.512 43.691 0 16.302-8.167 31.544-21.788 40.79l-4.65 2.855c-50.986 28.897-71.076 92.674-45.447 145.727l3.746 7.061 28.143 47.657c14.628 25.897 39.696 45.406 69.343 53.669 26.277 7.324 54.32 5.298 79.182-5.667l7.862-3.85c13.231-7.502 26.9-9.3 39.73-5.933 12.83 3.367 23.756 11.62 30.35 22.925 3.636 6.016 5.77 12.22 6.533 18.648l0.375 6.528C369.325 903.137 421.19 954 485.169 954h54.55c60.412 0 110.552-45.512 115.456-104.249l0.358-7.586c-0.035-14.672 5.258-27.29 14.731-36.579 9.473-9.29 22.339-14.48 35.735-14.417 6.158 0.17 12.923 1.68 19.193 4.43l6.01 3.036c50.708 28.705 117.155 13.96 151.378-34.303l4.392-6.712 29.127-47.585c15.682-26.392 19.928-57.403 12.01-86.519-7.017-25.807-23.104-48.323-45.374-63.599l-7.372-4.632c-12.813-7.265-21.26-18.056-24.702-30.716s-1.596-26.142 5.13-37.463c3.723-6.374 8.675-11.679 14.615-15.74l11.36-7.001c46.009-30.631 63.24-90.924 39.022-141.61l-2.512-4.937a31.742 31.742 0 0 0-1.886-3.757l-27.076-46.077c-30.126-51.276-95.266-71.175-149.579-46.135l-7.234 3.664c-12.98 7.447-26.684 9.33-39.586 6.044-12.902-3.285-23.942-11.468-30.685-22.745-3.46-5.719-5.595-11.923-6.357-18.352l-0.375-6.528c0.95-27.756-10.856-57.497-32.68-79.513C600.995 82.403 571.014 69.987 539.706 70z m-54.537 63.99h54.55c13.687 0 26.78 5.417 36.312 15.032 9.53 9.615 14.687 22.604 14.295 36.008l0.58 11.14c1.972 17.031 7.07 31.847 15.124 45.156 15.421 25.79 40.812 44.611 70.486 52.167 29.675 7.556 61.195 3.227 87.61-12.034l4.555-2.276 4.901-1.925c21.566-7.097 46.982 1.885 59.196 22.674l25.824 43.987 0.56 1.239 3.121 5.903c10.45 21.932 1.717 49.675-20.894 62.644l-7.097 4.384c-15.054 10.255-26.6 22.623-35.003 37.009-15.347 25.832-19.593 56.843-11.676 85.959 7.198 26.47 23.908 49.388 46.897 64.626l12.023 7.454c8.482 5.856 15.477 15.647 18.528 26.867 3.443 12.66 1.597 26.143-5.129 37.463l-28.454 46.503-3.2 4.906c-13.167 18.525-39.143 25.404-61.042 15.977l-13.953-6.99c-15.562-6.867-30.786-10.266-46.254-10.672-31.526-0.157-61.118 11.782-82.904 33.147-21.787 21.366-33.96 50.386-33.812 80.601l-0.25 4.821c-2.058 24.363-23.968 44.25-50.344 44.25h-54.55c-26.08 0-47.55-19.35-50.296-44.21l-0.89-15.628c-1.973-17.03-7.07-31.846-15.125-45.155-14.974-25.677-40.218-44.744-69.858-52.523-29.64-7.779-61.221-3.624-87.723 11.541l-4.8 2.305c-9.556 4.18-21.805 5.065-33.28 1.867-12.949-3.61-23.896-12.13-30.421-23.675l-27.787-47.007-2.485-4.71c-10.526-21.85-1.786-49.595 20.86-62.443l6.88-4.242c32.32-21.906 51.018-56.8 51.018-94.13 0-37.882-19.234-73.078-50.94-94.102l-11.513-7.15c-20.342-13.904-26.913-42.379-13.775-64.739l28.671-46.202c14.322-24.359 45.184-32.536 69.387-18.935l8.494 4.393c15.866 7.19 31.424 10.612 47.205 10.773 61.222 0.008 111.283-46.105 115.852-104.864l0.593-13.476c0.896-10.13 6.004-20.98 14.354-29.207 9.42-9.282 22.224-14.5 35.579-14.5z"
          fill="#e6e6e6" p-id="1444"/>
    <path d="M512.643 373c77.776 0 141 62.134 141 139 0 64.01-44.216 119.191-106.164 134.72-13.393 3.356-26.971-4.779-30.328-18.172-3.324-13.259 4.617-26.7 17.77-30.224l0.4-0.104c39.96-10.016 68.322-45.413 68.322-86.22 0-49.055-40.646-89-91-89s-91 39.945-91 89c0 19.31 6.277 37.635 17.756 52.826l0.474 0.622c8.42 10.943 6.374 26.64-4.568 35.059-10.943 8.42-26.64 6.374-35.06-4.569-18.437-23.963-28.602-53.218-28.602-83.938 0-76.866 63.224-139 141-139z"
          fill="#e6e6e6" p-id="1445"/>
</svg>
